# xmcd CD database file
#
# Track frame offsets:
#	150
#	19372
#	47711
#	73041
#	84112
#	120104
#	138352
#	149843
#	170055
#	213094
#	248076
#	276190
#	292090
#	313106
#
# Disc length: 4411 seconds
#
# Revision: 0
# Processed by: cddbd v1.5.2PL0 Copyright (c) Steve Scherf et al.
# Submitted via: CDex 1.51
#
DISCID=d311390e
DTITLE=Various Artist - Riverboat Jazz Festival 2003
DYEAR=2003
DGENRE=Jazz
TTITLE0=Mitch Woods and His Rocket 88's - Boogie Woogie Barbeque
TTITLE1=Topsy Chapman and Magnolia Jazzband - You Can't Tell The Difference After Dark
TTITLE2=Second Line Jazzband - My Monday Date
TTITLE3=Bobo Moreno and Randers Big Band - Fly Me To The Moon
TTITLE4=Richard Bennett's New Orleans Jazzband - Teasing Rag
TTITLE5=Fessors Big City Band - Lonesome Road
TTITLE6=The Pasadena Roof Orchestra - Everybody Loves My Baby
TTITLE7=J.J. Jazzmen featuring Eva Emingerová - Don't Be That Way
TTITLE8=Leroy Jones, Gunhild Carling and The Silkeborg Lads - Do The Hucklebuck
TTITLE9=Bourbon Street Jazzband featuring Leroy Jones and Jacques Gauthé - How Come You Do Me Like You Do
TTITLE10=Hugo Rasmussen Allstarz - Nuages
TTITLE11=Paul Harrison Band - Darktown Strutter's Ball
TTITLE12=Kims Bacon Jubilæums Band - Love Letters In The Sand
TTITLE13=Julie O'Hara And M.O.P. - It Don't Mean A Thing If It Ain't Got That Swing
EXTD=YEAR: 2003
EXTT0=
EXTT1=
EXTT2=
EXTT3=
EXTT4=
EXTT5=
EXTT6=
EXTT7=
EXTT8=
EXTT9=
EXTT10=
EXTT11=
EXTT12=
EXTT13=
PLAYORDER=
